REM DIRINDEX 1\2,1\3
REM DIRNAME folder01,folder02,folder03
TITLE ""
FILE "Disk2Track55.mp3" MP3
  TRACK 01 AUDIO
    TITLE "2:cjc052_0924"
    INDEX 01 00:00:00
  TRACK 02 AUDIO
    TITLE "2:cjc052_0925"
    INDEX 01 00:10:29
  TRACK 03 AUDIO
    TITLE "2:cjc052_0926"
    INDEX 01 00:22:21
  TRACK 04 AUDIO
    TITLE "2:cjc052_0927"
    INDEX 01 00:39:19
  TRACK 05 AUDIO
    TITLE "0:"
    INDEX 01 00:48:38
